<svg width="670" height="639" xmlns="http://www.w3.org/2000/svg">
  <path d="M293.5 3.6C221.5 10.8 160 34 106.7 74.2 65 105.6 28.3 149.4 5.1 195.7c-3.8 7.6-4.1 8.9-4.1 16.2 0 9 .8 10.1 7.3 10.1 4.8 0 10.5-4.5 16.3-12.7 21.5-30.5 44.4-56.5 67.7-77 55.1-48.4 119.3-76.5 190.2-83.4 17.6-1.7 59.5-.6 76 1.9 68.5 10.6 125 39 170.5 85.8 51.1 52.5 78.2 118.3 78.2 189.9 0 56.9-17.4 109.1-51 152.5-9.1 11.8-29.7 32-41.7 41.1-30.9 23.2-60.8 36.4-96 42.6-14.2 2.4-53 2.4-67 0-59.7-10.5-105-40.5-133-88.2-6.4-10.9-13.5-27.3-17-39.1-9.7-33.8-6.2-74 9.5-106.9 9-18.9 26.4-40 41.5-50.4 29.4-20.4 66.8-25.5 97.4-13.5 19 7.5 36.9 22.7 44.9 38.2 9.2 17.7 9.6 38 1.1 53-5.7 9.8-17.2 19.2-23.7 19.2-3.3 0-10-3-10.8-4.8-.4-.9-1.5-5.5-2.5-10.1-2.1-9.7-5.1-14.8-11.1-18.8-7-4.7-10-5.5-19-5.1-11.1.5-17.9 3.6-26.2 12.1-11.2 11.4-16.9 25.8-16.9 42.2 0 16.8 5 30.7 15.7 44.2 15.5 19.4 39.7 31 69.6 33.5 15.9 1.4 25.4.1 43-5.8 36.3-12.1 63.4-40 76.4-78.8 5.8-17.5 7-26.1 7-50.6 0-26.5-1.6-35.5-8.9-52.9-9.4-22.2-21.8-40.4-39.5-58.1-14.6-14.6-26.6-23.4-44-32.4-44.1-22.7-92-26.5-146.3-11.5-36.5 10.1-77.1 40.3-104.2 77.4-29.2 40.1-41.8 83.1-40.2 137.5 2 66.2 25.5 120.8 72.2 167.5 41.5 41.6 94.2 66.8 156 74.6 14.8 1.9 53.1 1.6 68.5-.5 71.3-9.8 128.7-39.5 175.9-91 62.1-67.8 89.8-161 76.1-255.8-8.6-59.5-34.6-119.2-70.3-161.8C537.2 59.7 461 18.1 372 5.4c-11-1.5-67.8-2.8-78.5-1.8z"/>
</svg>
